<svg width="41" height="30" viewBox="0 0 41 30" fill="none" xmlns="http://www.w3.org/2000/svg">
<rect width="41" height="30" rx="15" fill="#141414"/>
<path d="M8.9375 22V7.45455H19.1648V10.6364H12.8864V13.1364H18.5398V16.3182H12.8864V22H8.9375ZM20.6172 22V7.45455H26.924C28.032 7.45455 28.9624 7.60369 29.7152 7.90199C30.4728 8.20028 31.0433 8.62169 31.4268 9.16619C31.8151 9.7107 32.0092 10.3523 32.0092 11.0909C32.0092 11.6259 31.8909 12.1136 31.6541 12.554C31.4221 12.9943 31.0954 13.3636 30.674 13.6619C30.2526 13.9555 29.7602 14.1591 29.1967 14.2727V14.4148C29.8217 14.4384 30.3899 14.5971 30.9013 14.8906C31.4126 15.1795 31.8198 15.5795 32.1229 16.0909C32.4259 16.5975 32.5774 17.1941 32.5774 17.8807C32.5774 18.6761 32.3691 19.384 31.9524 20.0043C31.5405 20.6245 30.9534 21.1122 30.1911 21.4673C29.4287 21.8224 28.5196 22 27.4638 22H20.6172ZM24.5661 18.8466H26.4126C27.0755 18.8466 27.5727 18.7235 27.9041 18.4773C28.2356 18.2263 28.4013 17.857 28.4013 17.3693C28.4013 17.0284 28.3232 16.7396 28.1669 16.5028C28.0107 16.2661 27.7881 16.0862 27.4993 15.9631C27.2152 15.84 26.8719 15.7784 26.4695 15.7784H24.5661V18.8466ZM24.5661 13.3352H26.1854C26.531 13.3352 26.8364 13.2808 27.1016 13.1719C27.3667 13.063 27.5727 12.9067 27.7195 12.7031C27.871 12.4948 27.9467 12.2415 27.9467 11.9432C27.9467 11.4934 27.7857 11.1501 27.4638 10.9134C27.1418 10.6719 26.7346 10.5511 26.2422 10.5511H24.5661V13.3352Z" fill="white"/>
</svg>
