<svg width="159" height="49" viewBox="0 0 159 49" fill="none" xmlns="http://www.w3.org/2000/svg">
<rect width="159" height="49" rx="24.5" fill="#141414"/>
<path d="M18.5 36V12.7273H34.8636V17.8182H24.8182V21.8182H33.8636V26.9091H24.8182V36H18.5ZM44.6808 36.3182C42.8172 36.3182 41.2111 35.9621 39.8626 35.25C38.5217 34.5303 37.4876 33.5 36.7603 32.1591C36.0406 30.8106 35.6808 29.197 35.6808 27.3182C35.6808 25.5152 36.0444 23.9394 36.7717 22.5909C37.499 21.2424 38.5255 20.1932 39.8512 19.4432C41.177 18.6932 42.7414 18.3182 44.5444 18.3182C45.8626 18.3182 47.0558 18.5227 48.124 18.9318C49.1922 19.3409 50.105 19.9356 50.8626 20.7159C51.6202 21.4886 52.2035 22.428 52.6126 23.5341C53.0217 24.6402 53.2262 25.8864 53.2262 27.2727V28.7273H37.6353V25.2727H47.4535C47.4459 24.7727 47.3172 24.3333 47.0672 23.9545C46.8247 23.5682 46.4952 23.2689 46.0785 23.0568C45.6694 22.8371 45.2035 22.7273 44.6808 22.7273C44.1732 22.7273 43.7073 22.8371 43.2831 23.0568C42.8588 23.2689 42.5179 23.5644 42.2603 23.9432C42.0103 24.322 41.8778 24.7652 41.8626 25.2727V29C41.8626 29.5606 41.98 30.0606 42.2149 30.5C42.4497 30.9394 42.7869 31.2841 43.2262 31.5341C43.6656 31.7841 44.1959 31.9091 44.8172 31.9091C45.249 31.9091 45.6429 31.8485 45.999 31.7273C46.3626 31.6061 46.6732 31.4318 46.9308 31.2045C47.1884 30.9697 47.3778 30.6894 47.499 30.3636H53.2262C53.0293 31.5758 52.5634 32.6288 51.8285 33.5227C51.0937 34.4091 50.1202 35.0985 48.9081 35.5909C47.7035 36.0758 46.2944 36.3182 44.6808 36.3182ZM56.1059 36V18.5455H62.1968V21.8636H62.3786C62.6968 20.6364 63.2006 19.7386 63.89 19.1705C64.587 18.6023 65.4014 18.3182 66.3332 18.3182C66.6059 18.3182 66.8748 18.3409 67.14 18.3864C67.4127 18.4242 67.6741 18.4811 67.9241 18.5568V23.9091C67.6135 23.803 67.2309 23.7235 66.7764 23.6705C66.3218 23.6174 65.9317 23.5909 65.6059 23.5909C64.9923 23.5909 64.4392 23.7311 63.9468 24.0114C63.462 24.2841 63.0794 24.6705 62.7991 25.1705C62.5188 25.6629 62.3786 26.2424 62.3786 26.9091V36H56.1059ZM70.21 36V12.7273H80.3009C82.0736 12.7273 83.5623 12.9659 84.7668 13.4432C85.9789 13.9205 86.8918 14.5947 87.5055 15.4659C88.1267 16.3371 88.4373 17.3636 88.4373 18.5455C88.4373 19.4015 88.2479 20.1818 87.8691 20.8864C87.4979 21.5909 86.9752 22.1818 86.3009 22.6591C85.6267 23.1288 84.8388 23.4545 83.9373 23.6364V23.8636C84.9373 23.9015 85.8464 24.1553 86.6645 24.625C87.4827 25.0871 88.1342 25.7273 88.6191 26.5455C89.1039 27.3561 89.3464 28.3106 89.3464 29.4091C89.3464 30.6818 89.013 31.8144 88.3464 32.8068C87.6873 33.7992 86.7479 34.5795 85.5282 35.1477C84.3085 35.7159 82.8539 36 81.1645 36H70.21ZM76.5282 30.9545H79.4827C80.5433 30.9545 81.3388 30.7576 81.8691 30.3636C82.3994 29.9621 82.6645 29.3712 82.6645 28.5909C82.6645 28.0455 82.5395 27.5833 82.2895 27.2045C82.0395 26.8258 81.6835 26.5379 81.2214 26.3409C80.7668 26.1439 80.2176 26.0455 79.5736 26.0455H76.5282V30.9545ZM76.5282 22.1364H79.1191C79.6721 22.1364 80.1608 22.0492 80.585 21.875C81.0092 21.7008 81.3388 21.4508 81.5736 21.125C81.8161 20.7917 81.9373 20.3864 81.9373 19.9091C81.9373 19.1894 81.6797 18.6402 81.1645 18.2614C80.6494 17.875 79.9979 17.6818 79.21 17.6818H76.5282V22.1364ZM98.2686 12.7273V36H91.9959V12.7273H98.2686ZM110.194 36.3182C108.3 36.3182 106.679 35.9432 105.33 35.1932C103.982 34.4356 102.948 33.3826 102.228 32.0341C101.508 30.678 101.148 29.1061 101.148 27.3182C101.148 25.5303 101.508 23.9621 102.228 22.6136C102.948 21.2576 103.982 20.2045 105.33 19.4545C106.679 18.697 108.3 18.3182 110.194 18.3182C112.088 18.3182 113.709 18.697 115.057 19.4545C116.406 20.2045 117.44 21.2576 118.16 22.6136C118.879 23.9621 119.239 25.5303 119.239 27.3182C119.239 29.1061 118.879 30.678 118.16 32.0341C117.44 33.3826 116.406 34.4356 115.057 35.1932C113.709 35.9432 112.088 36.3182 110.194 36.3182ZM110.239 31.6818C110.77 31.6818 111.228 31.5038 111.614 31.1477C112.001 30.7917 112.3 30.2841 112.512 29.625C112.724 28.9659 112.83 28.1818 112.83 27.2727C112.83 26.3561 112.724 25.572 112.512 24.9205C112.3 24.2614 112.001 23.7538 111.614 23.3977C111.228 23.0417 110.77 22.8636 110.239 22.8636C109.679 22.8636 109.198 23.0417 108.796 23.3977C108.395 23.7538 108.088 24.2614 107.876 24.9205C107.663 25.572 107.557 26.3561 107.557 27.2727C107.557 28.1818 107.663 28.9659 107.876 29.625C108.088 30.2841 108.395 30.7917 108.796 31.1477C109.198 31.5038 109.679 31.6818 110.239 31.6818ZM130.514 42.9091C128.764 42.9091 127.264 42.6591 126.014 42.1591C124.771 41.6667 123.805 40.9848 123.116 40.1136C122.434 39.25 122.052 38.2576 121.968 37.1364H128.014C128.074 37.5076 128.226 37.8068 128.468 38.0341C128.711 38.2614 129.021 38.4242 129.4 38.5227C129.786 38.6288 130.218 38.6818 130.696 38.6818C131.506 38.6818 132.177 38.4848 132.707 38.0909C133.245 37.697 133.514 36.9848 133.514 35.9545V33H133.332C133.105 33.5909 132.756 34.0947 132.286 34.5114C131.817 34.9205 131.252 35.2348 130.593 35.4545C129.934 35.6667 129.211 35.7727 128.423 35.7727C127.18 35.7727 126.036 35.4848 124.991 34.9091C123.953 34.3333 123.12 33.4205 122.491 32.1705C121.87 30.9205 121.559 29.2879 121.559 27.2727C121.559 25.1667 121.885 23.4545 122.536 22.1364C123.196 20.8182 124.044 19.8523 125.082 19.2386C126.127 18.625 127.226 18.3182 128.377 18.3182C129.241 18.3182 129.999 18.4697 130.65 18.7727C131.302 19.0682 131.847 19.4659 132.286 19.9659C132.726 20.4583 133.059 21 133.286 21.5909H133.423V18.5455H139.696V35.9545C139.696 37.4318 139.313 38.6856 138.548 39.7159C137.79 40.7538 136.722 41.5455 135.343 42.0909C133.965 42.6364 132.355 42.9091 130.514 42.9091ZM130.741 31.3182C131.317 31.3182 131.809 31.1591 132.218 30.8409C132.635 30.5152 132.953 30.053 133.173 29.4545C133.4 28.8485 133.514 28.1212 133.514 27.2727C133.514 26.4091 133.4 25.6705 133.173 25.0568C132.953 24.4356 132.635 23.9621 132.218 23.6364C131.809 23.303 131.317 23.1364 130.741 23.1364C130.165 23.1364 129.673 23.303 129.264 23.6364C128.862 23.9621 128.552 24.4356 128.332 25.0568C128.12 25.6705 128.014 26.4091 128.014 27.2727C128.014 28.1364 128.12 28.8712 128.332 29.4773C128.552 30.0758 128.862 30.5341 129.264 30.8523C129.673 31.1629 130.165 31.3182 130.741 31.3182Z" fill="white"/>
</svg>
